<?xml version="1.0" encoding="utf-8"?>
<!-- Generator: Adobe Illustrator 28.0.0, SVG Export Plug-In . SVG Version: 6.00 Build 0)  -->
<svg version="1.1" id="Ebene_1" xmlns="http://www.w3.org/2000/svg" xmlns:xlink="http://www.w3.org/1999/xlink" x="0px" y="0px"
	 viewBox="0 0 76.54 76.54" style="enable-background:new 0 0 76.54 76.54;" xml:space="preserve">
<style type="text/css">
	.st0{fill:#FFFFFF;}
</style>
<g id="Gruppe_580" transform="translate(-2100.402 -914)">
	<g id="Gruppe_577" transform="translate(2103 926.462)">
		<g id="Gruppe_582">
			<path id="Pfad_533" class="st0" d="M47.7,22.13l9.08,6.72c1.19-1.95,1.91-4.15,2.12-6.42c0.04-0.42,0.3-0.79,0.69-0.98l5.01-2.42
				L56.56,5.71l-5.19,2.67c-0.27,0.14-0.57,0.17-0.86,0.1l-6.05-1.49c-0.81-0.2-1.66-0.1-2.4,0.29l-14.87,7.71
				c0.66,1.13,1.96,2.87,3.78,2.88c2.65,0.01,7.04-2.36,8.5-3.28c0.52-0.32,1.19-0.22,1.59,0.24c1.7,1.69,3.97,2.68,6.37,2.78
				c1.81,0.13,3.61-0.24,5.22-1.08c0.58-0.36,1.33-0.18,1.69,0.39c0.36,0.57,0.19,1.32-0.38,1.68c0,0,0,0-0.01,0
				c-1.4,0.78-2.95,1.25-4.55,1.4c-0.7,0.07-1.41,0.09-2.12,0.05c-2.69-0.15-5.25-1.16-7.32-2.89c-1.76,1-5.93,3.19-9,3.16
				c-4.39-0.03-6.46-5.18-6.55-5.4c-0.23-0.58,0.02-1.25,0.58-1.53l2.48-1.29l-3.88-1.04c-0.81-0.22-1.66-0.15-2.42,0.22l-5.6,2.72
				c-0.27,0.13-0.57,0.16-0.86,0.08l-5.64-1.54L4.02,27.23l5.41,1.32c0.41,0.1,0.75,0.41,0.88,0.81c0.49,1.45,1.16,2.83,1.98,4.12
				l3.27-5.58c1.2-2.05,3.84-2.73,5.89-1.52c0.55,0.32,1.02,0.77,1.38,1.3c1.2-1.62,3.37-2.2,5.22-1.38
				c2.16,0.95,3.14,3.46,2.19,5.62c0,0.01-0.01,0.02-0.01,0.03c2.33,0.18,4.09,2.19,3.96,4.53c0.82-0.03,1.63,0.17,2.33,0.59
				c0.07,0.04,0.15,0.09,0.22,0.14c0.27-0.01,0.54,0.08,0.76,0.24l5.77,4.25c0.82,0.6,1.98,0.44,2.59-0.37
				c0.6-0.8,0.44-1.94-0.35-2.54c0,0-0.01-0.01-0.01-0.01l-6.22-4.58c-0.06-0.04-0.12-0.08-0.17-0.13c-0.5-0.44-0.55-1.21-0.11-1.71
				c0,0,0.01-0.01,0.01-0.01c0.45-0.5,1.23-0.55,1.74-0.1l8.45,6.22c0.82,0.6,1.98,0.43,2.59-0.38l0.01-0.01
				c0.6-0.8,0.43-1.94-0.37-2.54c0,0-0.01-0.01-0.01-0.01l-0.06-0.05l-8.07-5.99c-0.03-0.02-0.06-0.04-0.08-0.06
				c-0.52-0.42-0.6-1.18-0.18-1.71c0,0,0.01-0.01,0.01-0.01c0.43-0.52,1.2-0.6,1.73-0.17l9.39,6.95c0.82,0.6,1.98,0.43,2.59-0.38
				l0.01-0.01c0.6-0.8,0.43-1.94-0.37-2.54c0,0-0.01-0.01-0.01-0.01l-10.1-7.47c-0.47-0.4-0.58-1.08-0.24-1.6
				C46.37,21.92,47.13,21.76,47.7,22.13"/>
			<path id="Pfad_534" class="st0" d="M68.78,21.26l3.16-1.88l0.02,0.01c0.13-0.07,0.28-0.12,0.43-0.15
				c-0.97-7.88-4.46-15.24-9.95-20.98l-5.47,3.27L68.78,21.26z"/>
			<path id="Pfad_535" class="st0" d="M39.23,41.78l-0.65-0.48c-0.07,0.57-0.26,1.12-0.55,1.62L37,44.7l0.12,0.09
				c0.82,0.6,1.97,0.44,2.58-0.38l0,0l0,0c0.6-0.81,0.43-1.95-0.38-2.55C39.28,41.84,39.26,41.81,39.23,41.78"/>
			<path id="Pfad_536" class="st0" d="M7.82,8.53L2.36,6.91c-2.69,5.23-4.09,11.02-4.09,16.9c0,1.98,0.16,3.96,0.48,5.92l1.64,0.56
				L7.82,8.53z"/>
			<path id="Pfad_538" class="st0" d="M25.34,43.98L25.34,43.98c0.88,0.51,1.99,0.22,2.5-0.65l3.61-6.17c0.51-0.88,0.21-2-0.66-2.52
				h-0.01c-0.87-0.51-1.98-0.21-2.49,0.66c0,0,0,0,0,0c-0.02,0.04-0.05,0.08-0.08,0.12l-3.47,5.93c-0.02,0.04-0.04,0.08-0.06,0.12
				C24.18,42.34,24.47,43.46,25.34,43.98"/>
			<path id="Pfad_540" class="st0" d="M31.76,45.14c0.87,0.51,1.98,0.22,2.5-0.64c0,0,0,0,0-0.01l1.63-2.79l0,0
				c0.5-0.88,0.21-2-0.66-2.52c-0.86-0.5-1.96-0.23-2.48,0.62l-1.65,2.83C30.6,43.51,30.9,44.62,31.76,45.14"/>
			<path id="Pfad_541" class="st0" d="M20.18,28.5L20.18,28.5c-0.87-0.51-1.98-0.22-2.49,0.65c0,0,0,0,0,0l-3.57,6.11
				c-0.51,0.88-0.22,2,0.66,2.52c0.82,0.48,1.86,0.26,2.41-0.52l0.07-0.13l3.68-6.3C21.31,29.98,20.98,28.98,20.18,28.5"/>
			<path id="Pfad_542" class="st0" d="M20.04,40.88c0.41,0.25,0.91,0.32,1.38,0.2c0.47-0.12,0.87-0.42,1.12-0.85l5.31-9.07
				c0.51-0.88,0.22-2-0.66-2.52c-0.34-0.2-0.73-0.28-1.11-0.24c-0.09,0.01-0.18,0.03-0.27,0.05c-0.47,0.12-0.87,0.42-1.12,0.84
				l-5.3,9.07C18.87,39.24,19.17,40.37,20.04,40.88"/>
		</g>
	</g>
</g>
</svg>
